<svg width="16" height="52" viewBox="0 0 16 52" fill="none" xmlns="http://www.w3.org/2000/svg">
<path d="M7 1C7 0.447715 7.44772 -2.41411e-08 8 0C8.55228 2.41411e-08 9 0.447715 9 1L7 1ZM8.7071 51.7071C8.31658 52.0976 7.68342 52.0976 7.29289 51.7071L0.92893 45.3431C0.538406 44.9526 0.538406 44.3195 0.92893 43.9289C1.31945 43.5384 1.95262 43.5384 2.34314 43.9289L8 49.5858L13.6569 43.9289C14.0474 43.5384 14.6805 43.5384 15.0711 43.9289C15.4616 44.3195 15.4616 44.9526 15.0711 45.3431L8.7071 51.7071ZM9 1L9 51L7 51L7 1L9 1Z" fill="black"/>
</svg>
