<svg width="25" height="22" viewBox="0 0 25 22" fill="none" xmlns="http://www.w3.org/2000/svg">
<path d="M16.0719 1.46436L19.6433 7.71435M5.35758 7.71435L8.92901 1.46436M21.929 7.71435H3.07187C2.80404 7.70893 2.53843 7.76383 2.2947 7.87499C2.05098 7.98616 1.83538 8.15073 1.66389 8.35652C1.4924 8.56231 1.3694 8.80404 1.30402 9.06382C1.23863 9.3236 1.23252 9.59476 1.28615 9.85721L3.25044 19.6786C3.33392 20.0881 3.55834 20.4552 3.88462 20.7163C4.2109 20.9773 4.61839 21.1156 5.03615 21.1072H19.9647C20.3825 21.1156 20.79 20.9773 21.1163 20.7163C21.4425 20.4552 21.667 20.0881 21.7504 19.6786L23.7147 9.85721C23.7684 9.59476 23.7623 9.3236 23.6969 9.06382C23.6315 8.80404 23.5085 8.56231 23.337 8.35652C23.1655 8.15073 22.9499 7.98616 22.7062 7.87499C22.4624 7.76383 22.1968 7.70893 21.929 7.71435Z" stroke="white" stroke-width="1.78571" stroke-linecap="round" stroke-linejoin="round"/>
</svg>
