<svg width="24" height="24" viewBox="0 0 24 24" fill="none" xmlns="http://www.w3.org/2000/svg">
<path d="M6.615 21C6.155 21 5.771 20.846 5.463 20.538C5.15433 20.2293 5 19.845 5 19.385V4.615C5 4.155 5.15433 3.771 5.463 3.463C5.771 3.15433 6.155 3 6.615 3H14.5L19 7.5V12.312C18.8373 12.272 18.6727 12.242 18.506 12.222C18.3393 12.202 18.1707 12.192 18 12.192V8H14V4H6.615C6.46167 4 6.32067 4.064 6.192 4.192C6.064 4.32067 6 4.46167 6 4.615V19.385C6 19.5383 6.064 19.6793 6.192 19.808C6.32067 19.936 6.46167 20 6.615 20H12.446C12.5027 20.1913 12.5733 20.367 12.658 20.527C12.7427 20.687 12.8413 20.8447 12.954 21H6.615ZM15.9 20.865L15.212 20.177L17.312 18.077L15.212 15.977L15.9 15.288L18 17.388L20.1 15.288L20.788 15.977L18.713 18.077L20.788 20.177L20.1 20.865L18 18.79L15.9 20.865Z" fill="#949494"/>
</svg>
