<svg width="21" height="16" viewBox="0 0 21 16" fill="none" xmlns="http://www.w3.org/2000/svg">
<path d="M19.5312 0H0.78125C0.57405 0 0.375336 0.0823102 0.228823 0.228823C0.08231 0.375336 0 0.57405 0 0.78125V14.0625C0 14.4769 0.16462 14.8743 0.457646 15.1674C0.750671 15.4604 1.1481 15.625 1.5625 15.625H18.75C19.1644 15.625 19.5618 15.4604 19.8549 15.1674C20.1479 14.8743 20.3125 14.4769 20.3125 14.0625V0.78125C20.3125 0.57405 20.2302 0.375336 20.0837 0.228823C19.9372 0.0823102 19.7385 0 19.5312 0ZM10.1562 8.31543L2.79004 1.5625H17.5225L10.1562 8.31543ZM7.2959 7.8125L1.5625 13.0674V2.55762L7.2959 7.8125ZM8.45215 8.87207L9.62402 9.95117C9.76816 10.0835 9.95669 10.1569 10.1523 10.1569C10.348 10.1569 10.5365 10.0835 10.6807 9.95117L11.8525 8.87207L17.5166 14.0625H2.79004L8.45215 8.87207ZM13.0166 7.8125L18.75 2.55664V13.0684L13.0166 7.8125Z" fill="white"/>
</svg>
