<svg width="18" height="18" viewBox="0 0 18 18" fill="none" xmlns="http://www.w3.org/2000/svg">
<path d="M1.22731 15.2104L0.739052 15.7281L1.22824 15.2104H1.22731ZM12.8625 13.1127L12.3752 12.595L12.8635 13.1127H12.8625ZM16.6708 2.80667L17.1581 2.29L16.6699 2.80764L16.6708 2.80667ZM5.65213 12.2992L5.23032 11.8585L6.20777 10.8232L6.62681 11.264L5.65213 12.2992ZM3.81907 11.6736L2.05524 12.6845L1.3953 11.4021L3.15821 10.3922L3.81907 11.6736ZM1.7165 14.6928L3.02715 16.0677L2.05155 17.102L0.740898 15.7281L1.7165 14.6928ZM3.82645 16.5094C5.16479 16.6417 8.626 16.524 12.3752 12.595L13.3517 13.6293C9.26102 17.9173 5.36693 18.1275 3.69724 17.9631L3.82738 16.5094H3.82645ZM12.3752 12.595C15.9481 8.84899 16.5406 5.69939 16.6145 4.33233L17.9971 4.41503C17.9048 6.13529 17.171 9.62641 13.3517 13.6293L12.3752 12.595ZM11.1061 6.5819L10.8412 6.30362L11.8159 5.26932L12.0808 5.54663L11.1052 6.58093L11.1061 6.5819ZM10.6307 2.76677L11.7937 1.12824L12.9022 2.00394L11.7393 3.6415L10.6307 2.76677ZM15.7081 0.771153L17.1572 2.28903L16.1807 3.3243L14.7325 1.80642L15.7081 0.771153ZM11.5934 6.06426C12.0826 5.54663 12.0826 5.54663 12.0826 5.54858H12.0844L12.0872 5.55247C12.1308 5.59935 12.17 5.65051 12.2044 5.70523C12.2543 5.78307 12.3087 5.88523 12.3549 6.01464C12.4673 6.34869 12.4953 6.70782 12.4361 7.05672C12.3124 7.89837 11.7623 9.0105 10.3538 10.4875L9.37732 9.45224C10.6963 8.07059 11.0101 7.22992 11.0682 6.83293C11.0959 6.64417 11.0673 6.55076 11.059 6.52936C11.0544 6.51574 11.0525 6.51476 11.059 6.52352C11.0671 6.53701 11.0764 6.54971 11.0867 6.56147L11.0959 6.5712C11.0989 6.57422 11.102 6.57714 11.1052 6.57995L11.5943 6.06426H11.5934ZM10.3538 10.4875C8.94444 11.9645 7.88392 12.5405 7.08461 12.669C6.67573 12.7351 6.34622 12.6826 6.09609 12.5843C5.95622 12.5298 5.82539 12.4523 5.70843 12.3547C5.69255 12.3407 5.67716 12.3261 5.66228 12.3109L5.65582 12.3051L5.65305 12.3022L5.65213 12.3002C5.65213 12.3002 5.65121 12.2992 6.13947 11.7816C6.62865 11.264 6.62588 11.263 6.62588 11.263L6.62404 11.261L6.62219 11.2591L6.61665 11.2542L6.60742 11.2445C6.59633 11.234 6.58461 11.2243 6.57235 11.2153C6.56312 11.2085 6.56589 11.2114 6.57881 11.2173C6.60189 11.226 6.69234 11.2562 6.87417 11.227C7.25629 11.1647 8.05929 10.8339 9.37732 9.45224L10.3538 10.4875ZM11.7937 1.12727C12.7352 -0.196007 14.5848 -0.406175 15.7081 0.771153L14.7325 1.80642C14.2415 1.29171 13.3702 1.34522 12.9022 2.00394L11.7946 1.12727H11.7937ZM16.6136 4.3333C16.632 3.99664 16.4853 3.64442 16.1807 3.32527L17.1581 2.29C17.6538 2.80959 18.0442 3.54517 17.9971 4.41503L16.6136 4.3333ZM3.02715 16.0677C3.28004 16.3343 3.55325 16.4841 3.82553 16.5104L3.69724 17.9631C3.01884 17.8959 2.46412 17.5359 2.05062 17.1029L3.02715 16.0677ZM10.8412 6.30362C9.93204 5.35106 9.86466 3.84583 10.6298 2.76775L11.7383 3.64247C11.3664 4.16692 11.4217 4.85483 11.8168 5.2703L10.8412 6.30362ZM2.05431 12.6855C1.30023 13.1175 1.18301 14.1353 1.71558 14.6938L0.739052 15.7281C-0.497755 14.4311 -0.116558 12.2681 1.39438 11.4031L2.05431 12.6855ZM5.23032 11.8594C4.8759 11.4878 4.30549 11.3963 3.81815 11.6746L3.15729 10.3931C4.15781 9.81907 5.39831 9.97766 6.20685 10.8242L5.23032 11.8594Z" fill="white"/>
</svg>
