<svg width="25" height="25" viewBox="0 0 25 25" fill="none" xmlns="http://www.w3.org/2000/svg">
<path d="M9.41634 22.4375C10.4163 22.7396 11.4268 22.9167 12.4997 22.9167C15.2623 22.9167 17.9119 21.8192 19.8654 19.8657C21.8189 17.9122 22.9163 15.2627 22.9163 12.5C22.9163 11.1321 22.6469 9.77753 22.1234 8.51372C21.5999 7.24992 20.8326 6.10159 19.8654 5.13431C18.8981 4.16704 17.7498 3.39975 16.486 2.87627C15.2222 2.35278 13.8676 2.08334 12.4997 2.08334C11.1317 2.08334 9.7772 2.35278 8.51339 2.87627C7.24958 3.39975 6.10126 4.16704 5.13398 5.13431C3.18047 7.08782 2.08301 9.73734 2.08301 12.5C2.08301 16.9271 4.86426 20.7292 8.79134 22.2292C8.69759 21.4167 8.60384 20.0729 8.79134 19.1458L9.98926 14C9.98926 14 9.68717 13.3958 9.68717 12.4375C9.68717 11 10.583 9.92709 11.6038 9.92709C12.4997 9.92709 12.9163 10.5833 12.9163 11.4271C12.9163 12.3229 12.3226 13.6042 12.0205 14.8333C11.8434 15.8542 12.5622 16.75 13.6038 16.75C15.458 16.75 16.8955 14.7708 16.8955 11.9792C16.8955 9.47918 15.1038 7.77084 12.5309 7.77084C9.59342 7.77084 7.86426 9.95834 7.86426 12.2604C7.86426 13.1563 8.15592 14.0625 8.63509 14.6563C8.72884 14.7188 8.72884 14.8021 8.69759 14.9583L8.39551 16.0938C8.39551 16.2708 8.28092 16.3333 8.10384 16.2083C6.77051 15.625 5.99967 13.7292 5.99967 12.1979C5.99967 8.90626 8.33301 5.91668 12.833 5.91668C16.4163 5.91668 19.208 8.48959 19.208 11.9063C19.208 15.4896 16.9893 18.3646 13.8122 18.3646C12.8018 18.3646 11.8122 17.8229 11.458 17.1875L10.7601 19.6563C10.5205 20.5521 9.86426 21.75 9.41634 22.4688V22.4375Z" fill="white"/>
</svg>
