<svg width="25" height="25" viewBox="0 0 25 25" fill="none" xmlns="http://www.w3.org/2000/svg">
<path d="M22.8589 2.88027C22.6343 2.6941 22.3635 2.57218 22.0752 2.52743C21.7869 2.48268 21.4919 2.51678 21.2214 2.62611L2.55789 10.1605C2.2563 10.2844 1.99953 10.4972 1.82168 10.7704C1.64382 11.0437 1.5533 11.3646 1.56211 11.6906C1.57093 12.0165 1.67867 12.3321 1.87103 12.5954C2.0634 12.8587 2.33129 13.0572 2.63914 13.1646L6.66622 14.5626L8.84851 21.7771C8.85268 21.7917 8.86622 21.8011 8.87247 21.8146C8.89496 21.8722 8.92779 21.9252 8.96935 21.9709C9.03249 22.0414 9.114 22.093 9.20476 22.1199C9.21518 22.124 9.22247 22.1334 9.23289 22.1355H9.23914L9.24226 22.1365C9.32285 22.1539 9.40659 22.1496 9.48497 22.124C9.49331 22.1219 9.50164 22.1219 9.51101 22.1188C9.58627 22.0924 9.65437 22.0489 9.70997 21.9917C9.71622 21.9844 9.72664 21.9834 9.73289 21.9771L12.8714 18.5126L17.4516 22.0594C17.7298 22.2771 18.0725 22.3949 18.4256 22.3949C19.1902 22.3949 19.8496 21.8594 20.0068 21.1126L23.4048 4.42715C23.4624 4.14389 23.4421 3.8503 23.3459 3.5777C23.2498 3.30509 23.0815 3.06368 22.8589 2.87923M9.98706 15.9324L9.2506 19.5126L7.71414 14.4313L15.3339 10.4626L10.1287 15.6688C10.0566 15.7408 10.0074 15.8325 9.98706 15.9324ZM18.986 20.9032C18.9665 20.9976 18.9229 21.0855 18.8596 21.1583C18.7963 21.2311 18.7154 21.2863 18.6246 21.3188C18.5359 21.3529 18.44 21.3634 18.3461 21.3491C18.2522 21.3349 18.1636 21.2964 18.0891 21.2376L13.1277 17.3949C13.024 17.3148 12.8939 17.2768 12.7634 17.2883C12.6329 17.2999 12.5115 17.3603 12.4235 17.4574L10.2391 19.8646L10.9746 16.2949L18.4631 8.80527C18.5508 8.71729 18.6042 8.60085 18.6135 8.47698C18.6229 8.35311 18.5878 8.22996 18.5143 8.12975C18.4409 8.02955 18.3341 7.95889 18.2131 7.93052C18.0922 7.90216 17.9651 7.91795 17.8548 7.97507L7.05997 13.598L2.97976 12.1792C2.87158 12.1435 2.77722 12.0749 2.70983 11.9831C2.64243 11.8912 2.60534 11.7807 2.60372 11.6667C2.59853 11.5518 2.62924 11.4381 2.69158 11.3414C2.75392 11.2447 2.84481 11.1698 2.95164 11.1271L21.6121 3.59277C21.7077 3.55215 21.8127 3.53901 21.9154 3.55483C22.0181 3.57066 22.1143 3.61482 22.1933 3.68236C22.2718 3.74589 22.3311 3.82999 22.3646 3.92527C22.3981 4.02055 22.4044 4.12327 22.3829 4.22194L18.986 20.9032Z" fill="white"/>
</svg>
