<svg width="25" height="25" viewBox="0 0 25 25" fill="none" xmlns="http://www.w3.org/2000/svg">
<path d="M19.8441 5.11481C18.8891 4.15015 17.7516 3.3853 16.4979 2.86486C15.2442 2.34443 13.8994 2.07883 12.542 2.08356C6.85449 2.08356 2.21908 6.71897 2.21908 12.4065C2.21908 14.2294 2.69824 16.0002 3.59408 17.5627L2.13574 22.9169L7.60449 21.4794C9.11491 22.3023 10.8128 22.7398 12.542 22.7398C18.2295 22.7398 22.8649 18.1044 22.8649 12.4169C22.8649 9.65647 21.792 7.06272 19.8441 5.11481ZM12.542 20.9898C11.0003 20.9898 9.48991 20.5731 8.16699 19.7919L7.85449 19.6044L4.60449 20.4586L5.46908 17.2919L5.26074 16.969C4.40423 15.6012 3.94943 14.0203 3.94824 12.4065C3.94824 7.67731 7.80241 3.82314 12.5316 3.82314C14.8232 3.82314 16.9795 4.71897 18.5941 6.34397C19.3935 7.13977 20.0271 8.08633 20.458 9.12879C20.889 10.1713 21.1087 11.2889 21.1045 12.4169C21.1253 17.1461 17.2712 20.9898 12.542 20.9898ZM17.2503 14.5731C16.9899 14.4481 15.7191 13.8231 15.4899 13.7294C15.2503 13.6461 15.0837 13.6044 14.9066 13.8544C14.7295 14.1148 14.2399 14.6981 14.0941 14.8648C13.9482 15.0419 13.792 15.0627 13.5316 14.9273C13.2712 14.8023 12.4378 14.5211 11.4587 13.6461C10.6878 12.9586 10.1774 12.1148 10.0212 11.8544C9.87532 11.594 10.0003 11.4586 10.1357 11.3231C10.2503 11.2086 10.3962 11.0211 10.5212 10.8752C10.6462 10.7294 10.6982 10.6148 10.7816 10.4481C10.8649 10.2711 10.8232 10.1252 10.7607 10.0002C10.6982 9.87522 10.1774 8.60439 9.96907 8.08356C9.76074 7.58356 9.54199 7.64606 9.38574 7.63564H8.88574C8.70866 7.63564 8.43782 7.69814 8.19824 7.95856C7.96907 8.21897 7.30241 8.84397 7.30241 10.1148C7.30241 11.3856 8.22949 12.6148 8.35449 12.7815C8.47949 12.9586 10.1774 15.5627 12.7607 16.6773C13.3753 16.9481 13.8545 17.1044 14.2295 17.219C14.8441 17.4169 15.4066 17.3856 15.8545 17.3231C16.3545 17.2502 17.3857 16.6981 17.5941 16.094C17.8128 15.4898 17.8128 14.9794 17.7399 14.8648C17.667 14.7502 17.5107 14.6981 17.2503 14.5731Z" fill="white"/>
</svg>
